<svg width="1920" height="1004" viewBox="0 0 1920 1004" fill="none" xmlns="http://www.w3.org/2000/svg">
<path d="M0 0H1919V1003H0V0Z" fill="#272727"/>
<path d="M1068.62 932.083C671.805 750.071 202.888 758.047 0.999512 842.652V888.294C0.999512 888.294 1465.43 1114.09 1068.62 932.083Z" fill="url(#paint0_linear_54_49)" fill-opacity="0.5"/>
<path d="M1918.5 1002V804.5C1388.25 746.9 736.733 912.167 620.354 1002H1918.5Z" fill="url(#paint1_linear_54_49)" fill-opacity="0.5"/>
<g filter="url(#filter0_i_54_49)">
<path d="M1920 1003.5V870.5C1920 870.5 1742.68 911.5 1557.38 932C1372.07 952.5 575.401 867 575.401 867C137.357 835 1.49902 886 1.49902 886V1003.5H1920Z" fill="url(#paint2_linear_54_49)"/>
</g>
<defs>
<filter id="filter0_i_54_49" x="1.49902" y="856.45" width="1918.5" height="151.05" filterUnits="userSpaceOnUse" color-interpolation-filters="sRGB">
<feFlood flood-opacity="0" result="BackgroundImageFix"/>
<feBlend mode="normal" in="SourceGraphic" in2="BackgroundImageFix" result="shape"/>
<feColorMatrix in="SourceAlpha" type="matrix" values="0 0 0 0 0 0 0 0 0 0 0 0 0 0 0 0 0 0 127 0" result="hardAlpha"/>
<feOffset dy="4"/>
<feGaussianBlur stdDeviation="8.5"/>
<feComposite in2="hardAlpha" operator="arithmetic" k2="-1" k3="1"/>
<feColorMatrix type="matrix" values="0 0 0 0 0 0 0 0 0 0 0 0 0 0 0 0 0 0 0.5 0"/>
<feBlend mode="normal" in2="shape" result="effect1_innerShadow_54_49"/>
</filter>
<linearGradient id="paint0_linear_54_49" x1="1274.17" y1="776.101" x2="-829.514" y2="1081.82" gradientUnits="userSpaceOnUse">
<stop stop-color="#3E3E3E"/>
<stop offset="1" stop-color="#323232" stop-opacity="0"/>
</linearGradient>
<linearGradient id="paint1_linear_54_49" x1="1047.91" y1="730" x2="2407.23" y2="1140.72" gradientUnits="userSpaceOnUse">
<stop stop-color="#3E3E3E"/>
<stop offset="1" stop-color="#3E3E3E" stop-opacity="0"/>
</linearGradient>
<linearGradient id="paint2_linear_54_49" x1="2208.2" y1="847.5" x2="-265.281" y2="1110.46" gradientUnits="userSpaceOnUse">
<stop stop-color="#008CFF"/>
<stop offset="1" stop-color="#B22635"/>
</linearGradient>
</defs>
</svg>
