<svg width="17" height="18" viewBox="0 0 17 18" fill="none" xmlns="http://www.w3.org/2000/svg">
<path d="M2.77241 15.248C2.25835 15.248 1.778 15.071 1.43248 14.7423C0.99427 14.3294 0.783591 13.7058 0.859435 13.0316L1.17124 10.3012C1.23023 9.78711 1.54204 9.10451 1.90441 8.73371L8.82314 1.41053C10.5507 -0.418175 12.3541 -0.468738 14.1828 1.25884C16.0115 2.98641 16.0621 4.78983 14.3345 6.61853L7.4158 13.9417C7.06186 14.3209 6.40453 14.6749 5.89047 14.7592L3.17691 15.2226C3.03365 15.2311 2.90724 15.248 2.77241 15.248ZM11.5283 1.25041C10.8794 1.25041 10.3147 1.65491 9.7417 2.26167L2.82297 9.59337C2.65443 9.77034 2.4606 10.1917 2.42689 10.4361L2.11509 13.1664C2.08138 13.4445 2.1488 13.672 2.30048 13.8153C2.45217 13.9586 2.67971 14.0091 2.95781 13.967L5.67136 13.5036C5.91575 13.4614 6.32025 13.2423 6.4888 13.0653L13.4075 5.7421C14.4525 4.62971 14.8317 3.6016 13.3064 2.16897C12.6322 1.52008 12.0508 1.25041 11.5283 1.25041Z" fill="#292D32"/>
<path d="M12.7168 8.02577C12.6999 8.02577 12.6746 8.02577 12.6578 8.02577C10.0285 7.76453 7.91328 5.76733 7.50877 3.1549C7.45821 2.80938 7.69417 2.48915 8.03968 2.43016C8.3852 2.3796 8.70543 2.61556 8.76442 2.96107C9.08466 5.00045 10.7364 6.56791 12.7926 6.77016C13.1381 6.80387 13.391 7.11568 13.3572 7.46115C13.3151 7.78138 13.037 8.02577 12.7168 8.02577Z" fill="#292D32"/>
<path d="M15.801 17.9699H0.632039C0.286524 17.9699 0 17.6834 0 17.3378C0 16.9923 0.286524 16.7058 0.632039 16.7058H15.801C16.1465 16.7058 16.433 16.9923 16.433 17.3378C16.433 17.6834 16.1465 17.9699 15.801 17.9699Z" fill="#292D32"/>
</svg>
