<svg width="177" height="51" viewBox="0 0 177 51" fill="none" xmlns="http://www.w3.org/2000/svg">
<g filter="url(#filter0_d_40_138)">
<path d="M75.2001 16.125C75.094 15.1326 74.6471 14.3598 73.8592 13.8068C73.0789 13.2538 72.0637 12.9773 70.8137 12.9773C69.9349 12.9773 69.1812 13.1098 68.5524 13.375C67.9236 13.6402 67.4425 14 67.1092 14.4545C66.7759 14.9091 66.6054 15.428 66.5978 16.0114C66.5978 16.4962 66.7077 16.9167 66.9274 17.2727C67.1546 17.6288 67.4615 17.9318 67.8478 18.1818C68.2342 18.4242 68.6622 18.6288 69.1319 18.7955C69.6016 18.9621 70.0751 19.1023 70.5524 19.2159L72.7342 19.7614C73.613 19.9659 74.4577 20.2424 75.2683 20.5909C76.0865 20.9394 76.8175 21.3788 77.4615 21.9091C78.113 22.4394 78.6281 23.0795 79.0069 23.8295C79.3857 24.5795 79.5751 25.4583 79.5751 26.4659C79.5751 27.8295 79.2266 29.0303 78.5296 30.0682C77.8327 31.0985 76.8251 31.9053 75.5069 32.4886C74.1963 33.0644 72.6092 33.3523 70.7455 33.3523C68.9349 33.3523 67.363 33.072 66.0296 32.5114C64.7039 31.9508 63.666 31.1326 62.916 30.0568C62.1736 28.9811 61.7721 27.6705 61.7115 26.125H65.8592C65.9198 26.9356 66.1698 27.6098 66.6092 28.1477C67.0486 28.6856 67.6205 29.0871 68.3251 29.3523C69.0372 29.6174 69.8327 29.75 70.7115 29.75C71.6281 29.75 72.4312 29.6136 73.1205 29.3409C73.8175 29.0606 74.363 28.6742 74.7569 28.1818C75.1509 27.6818 75.3516 27.0985 75.3592 26.4318C75.3516 25.8258 75.1736 25.3258 74.8251 24.9318C74.4766 24.5303 73.988 24.197 73.3592 23.9318C72.738 23.6591 72.0107 23.4167 71.1774 23.2045L68.5296 22.5227C66.613 22.0303 65.0978 21.2841 63.9842 20.2841C62.8781 19.2765 62.3251 17.9394 62.3251 16.2727C62.3251 14.9015 62.6963 13.7008 63.4387 12.6705C64.1887 11.6402 65.2077 10.8409 66.4955 10.2727C67.7834 9.69697 69.2418 9.40909 70.8705 9.40909C72.5221 9.40909 73.969 9.69697 75.2115 10.2727C76.4615 10.8409 77.4425 11.6326 78.1546 12.6477C78.8668 13.6553 79.2342 14.8144 79.2569 16.125H75.2001ZM82.3109 13.2614V9.72727H100.879V13.2614H93.6859V33H89.5041V13.2614H82.3109ZM124.223 21.3636C124.223 23.8712 123.753 26.0189 122.814 27.8068C121.882 29.5871 120.609 30.9508 118.996 31.8977C117.389 32.8447 115.568 33.3182 113.53 33.3182C111.492 33.3182 109.666 32.8447 108.052 31.8977C106.446 30.9432 105.174 29.5758 104.234 27.7955C103.302 26.0076 102.836 23.8636 102.836 21.3636C102.836 18.8561 103.302 16.7121 104.234 14.9318C105.174 13.1439 106.446 11.7765 108.052 10.8295C109.666 9.88257 111.492 9.40909 113.53 9.40909C115.568 9.40909 117.389 9.88257 118.996 10.8295C120.609 11.7765 121.882 13.1439 122.814 14.9318C123.753 16.7121 124.223 18.8561 124.223 21.3636ZM119.984 21.3636C119.984 19.5985 119.708 18.1098 119.155 16.8977C118.609 15.678 117.852 14.7576 116.882 14.1364C115.912 13.5076 114.795 13.1932 113.53 13.1932C112.264 13.1932 111.147 13.5076 110.177 14.1364C109.208 14.7576 108.446 15.678 107.893 16.8977C107.348 18.1098 107.075 19.5985 107.075 21.3636C107.075 23.1288 107.348 24.6212 107.893 25.8409C108.446 27.053 109.208 27.9735 110.177 28.6023C111.147 29.2235 112.264 29.5341 113.53 29.5341C114.795 29.5341 115.912 29.2235 116.882 28.6023C117.852 27.9735 118.609 27.053 119.155 25.8409C119.708 24.6212 119.984 23.1288 119.984 21.3636ZM136.095 33H128.209V9.72727H136.254C138.565 9.72727 140.55 10.1932 142.209 11.125C143.875 12.0492 145.156 13.3788 146.05 15.1136C146.943 16.8485 147.39 18.9242 147.39 21.3409C147.39 23.7652 146.94 25.8485 146.038 27.5909C145.144 29.3333 143.853 30.6705 142.163 31.6023C140.481 32.5341 138.459 33 136.095 33ZM132.425 29.3523H135.89C137.512 29.3523 138.864 29.0568 139.947 28.4659C141.031 27.8674 141.845 26.9773 142.39 25.7955C142.936 24.6061 143.209 23.1212 143.209 21.3409C143.209 19.5606 142.936 18.0833 142.39 16.9091C141.845 15.7273 141.038 14.8447 139.97 14.2614C138.909 13.6705 137.591 13.375 136.015 13.375H132.425V29.3523ZM172.192 21.3636C172.192 23.8712 171.722 26.0189 170.782 27.8068C169.851 29.5871 168.578 30.9508 166.964 31.8977C165.358 32.8447 163.536 33.3182 161.498 33.3182C159.461 33.3182 157.635 32.8447 156.021 31.8977C154.415 30.9432 153.142 29.5758 152.203 27.7955C151.271 26.0076 150.805 23.8636 150.805 21.3636C150.805 18.8561 151.271 16.7121 152.203 14.9318C153.142 13.1439 154.415 11.7765 156.021 10.8295C157.635 9.88257 159.461 9.40909 161.498 9.40909C163.536 9.40909 165.358 9.88257 166.964 10.8295C168.578 11.7765 169.851 13.1439 170.782 14.9318C171.722 16.7121 172.192 18.8561 172.192 21.3636ZM167.953 21.3636C167.953 19.5985 167.676 18.1098 167.123 16.8977C166.578 15.678 165.82 14.7576 164.851 14.1364C163.881 13.5076 162.764 13.1932 161.498 13.1932C160.233 13.1932 159.116 13.5076 158.146 14.1364C157.176 14.7576 156.415 15.678 155.862 16.8977C155.317 18.1098 155.044 19.5985 155.044 21.3636C155.044 23.1288 155.317 24.6212 155.862 25.8409C156.415 27.053 157.176 27.9735 158.146 28.6023C159.116 29.2235 160.233 29.5341 161.498 29.5341C162.764 29.5341 163.881 29.2235 164.851 28.6023C165.82 27.9735 166.578 27.053 167.123 25.8409C167.676 24.6212 167.953 23.1288 167.953 21.3636Z" fill="#343434"/>
<path d="M4 12C4 5.37257 9.37258 0 16 0H43.7406C50.368 0 55.7406 5.37258 55.7406 12V30.3332C55.7406 36.9606 50.368 42.3332 43.7406 42.3332H16C9.37258 42.3332 4 36.9606 4 30.3332V12Z" fill="#454545"/>
<rect x="8.2037" y="22.4458" width="43.3332" height="15.1111" rx="7.55554" fill="#F3F3F3" stroke="#DADADA"/>
<circle cx="15.7592" cy="30.0013" r="2.85185" fill="#EEEEEE" stroke="#817D7D"/>
<path d="M20.9901 27.7207H25.2643H29.5385" stroke="#252525" stroke-linecap="round"/>
<path d="M48.6239 23.3958L48.5419 36.6392C50.1675 36.188 50.7914 34.4188 50.7914 34.4188V29.9372V25.6514C50.5205 24.7492 49.7077 23.8469 48.6239 23.3958Z" fill="#B22635" stroke="#B22635"/>
<path d="M20.9901 29.7658H27.4576H33.9252" stroke="#252525" stroke-linecap="round"/>
<path d="M20.9901 30.9417H29.2215H37.453" stroke="#252525" stroke-linecap="round"/>
<path d="M20.9901 32.1175H30.9854H40.9807" stroke="#252525" stroke-linecap="round"/>
<rect x="8.44904" y="4.44907" width="43.3332" height="15.1111" rx="7.55554" fill="#252525" stroke="#393939"/>
<circle cx="16.0046" cy="12.0046" r="2.85185" fill="#464646" stroke="#4F4F4F"/>
<path d="M14.573 12.3727L15.6978 13.4975L17.4975 11.023" stroke="#C6C6C6" stroke-linecap="round"/>
<path d="M21.8842 9.83635H26.1585H30.4327" stroke="#F3F3F3" stroke-linecap="round"/>
<path d="M20.99 9.83635H25.2642H29.5385" stroke="#F3F3F3" stroke-linecap="round"/>
<path d="M48.7668 5.39896L48.5418 18.6715C49.9413 18.6138 51.0164 16.422 51.0164 16.197V12.1477V7.64855C50.7454 6.74628 49.8916 5.62392 48.7668 5.39896Z" fill="#6D9FFF" stroke="#6D9FFF"/>
<path d="M21.2353 11.7691H27.7029H34.1704" stroke="#F3F3F3" stroke-linecap="round"/>
<path d="M21.2354 12.9449H29.4668H37.6983" stroke="#F3F3F3" stroke-linecap="round"/>
<path d="M21.2354 14.1209H31.2307H41.226" stroke="#F3F3F3" stroke-linecap="round"/>
</g>
<defs>
<filter id="filter0_d_40_138" x="0" y="0" width="176.192" height="50.3332" filterUnits="userSpaceOnUse" color-interpolation-filters="sRGB">
<feFlood flood-opacity="0" result="BackgroundImageFix"/>
<feColorMatrix in="SourceAlpha" type="matrix" values="0 0 0 0 0 0 0 0 0 0 0 0 0 0 0 0 0 0 127 0" result="hardAlpha"/>
<feOffset dy="4"/>
<feGaussianBlur stdDeviation="2"/>
<feComposite in2="hardAlpha" operator="out"/>
<feColorMatrix type="matrix" values="0 0 0 0 0 0 0 0 0 0 0 0 0 0 0 0 0 0 0.25 0"/>
<feBlend mode="normal" in2="BackgroundImageFix" result="effect1_dropShadow_40_138"/>
<feBlend mode="normal" in="SourceGraphic" in2="effect1_dropShadow_40_138" result="shape"/>
</filter>
</defs>
</svg>
