<svg width="364" height="103" viewBox="0 0 364 103" fill="none" xmlns="http://www.w3.org/2000/svg">
<g filter="url(#filter0_d_22_269)">
<path d="M165.886 37.25C165.674 35.2652 164.78 33.7197 163.205 32.6136C161.644 31.5076 159.614 30.9545 157.114 30.9545C155.356 30.9545 153.848 31.2197 152.591 31.75C151.333 32.2803 150.371 33 149.705 33.9091C149.038 34.8182 148.697 35.8561 148.682 37.0227C148.682 37.9924 148.902 38.8333 149.341 39.5455C149.795 40.2576 150.409 40.8636 151.182 41.3636C151.955 41.8485 152.811 42.2576 153.75 42.5909C154.689 42.9242 155.636 43.2045 156.591 43.4318L160.955 44.5227C162.712 44.9318 164.402 45.4848 166.023 46.1818C167.659 46.8788 169.121 47.7576 170.409 48.8182C171.712 49.8788 172.742 51.1591 173.5 52.6591C174.258 54.1591 174.636 55.9167 174.636 57.9318C174.636 60.6591 173.939 63.0606 172.545 65.1364C171.152 67.197 169.136 68.8106 166.5 69.9773C163.879 71.1288 160.705 71.7045 156.977 71.7045C153.356 71.7045 150.212 71.1439 147.545 70.0227C144.894 68.9015 142.818 67.2652 141.318 65.1136C139.833 62.9621 139.03 60.3409 138.909 57.25H147.205C147.326 58.8712 147.826 60.2197 148.705 61.2955C149.583 62.3712 150.727 63.1742 152.136 63.7045C153.561 64.2348 155.152 64.5 156.909 64.5C158.742 64.5 160.348 64.2273 161.727 63.6818C163.121 63.1212 164.212 62.3485 165 61.3636C165.788 60.3636 166.189 59.197 166.205 57.8636C166.189 56.6515 165.833 55.6515 165.136 54.8636C164.439 54.0606 163.462 53.3939 162.205 52.8636C160.962 52.3182 159.508 51.8333 157.841 51.4091L152.545 50.0455C148.712 49.0606 145.682 47.5682 143.455 45.5682C141.242 43.553 140.136 40.8788 140.136 37.5455C140.136 34.803 140.879 32.4015 142.364 30.3409C143.864 28.2803 145.902 26.6818 148.477 25.5455C151.053 24.3939 153.97 23.8182 157.227 23.8182C160.53 23.8182 163.424 24.3939 165.909 25.5455C168.409 26.6818 170.371 28.2652 171.795 30.2955C173.22 32.3106 173.955 34.6288 174 37.25H165.886ZM180.108 31.5227V24.4545H217.244V31.5227H202.858V71H194.494V31.5227H180.108ZM263.932 47.7273C263.932 52.7424 262.992 57.0379 261.114 60.6136C259.25 64.1742 256.705 66.9015 253.477 68.7955C250.265 70.6894 246.621 71.6364 242.545 71.6364C238.47 71.6364 234.818 70.6894 231.591 68.7955C228.379 66.8864 225.833 64.1515 223.955 60.5909C222.091 57.0152 221.159 52.7273 221.159 47.7273C221.159 42.7121 222.091 38.4242 223.955 34.8636C225.833 31.2879 228.379 28.553 231.591 26.6591C234.818 24.7651 238.47 23.8182 242.545 23.8182C246.621 23.8182 250.265 24.7651 253.477 26.6591C256.705 28.553 259.25 31.2879 261.114 34.8636C262.992 38.4242 263.932 42.7121 263.932 47.7273ZM255.455 47.7273C255.455 44.197 254.902 41.2197 253.795 38.7955C252.705 36.3561 251.189 34.5152 249.25 33.2727C247.311 32.0152 245.076 31.3864 242.545 31.3864C240.015 31.3864 237.78 32.0152 235.841 33.2727C233.902 34.5152 232.379 36.3561 231.273 38.7955C230.182 41.2197 229.636 44.197 229.636 47.7273C229.636 51.2576 230.182 54.2424 231.273 56.6818C232.379 59.1061 233.902 60.947 235.841 62.2045C237.78 63.447 240.015 64.0682 242.545 64.0682C245.076 64.0682 247.311 63.447 249.25 62.2045C251.189 60.947 252.705 59.1061 253.795 56.6818C254.902 54.2424 255.455 51.2576 255.455 47.7273ZM287.676 71H271.903V24.4545H287.994C292.616 24.4545 296.585 25.3864 299.903 27.25C303.237 29.0985 305.797 31.7576 307.585 35.2273C309.373 38.697 310.267 42.8485 310.267 47.6818C310.267 52.5303 309.366 56.697 307.562 60.1818C305.775 63.6667 303.191 66.3409 299.812 68.2045C296.449 70.0682 292.403 71 287.676 71ZM280.335 63.7045H287.267C290.509 63.7045 293.214 63.1136 295.381 61.9318C297.547 60.7348 299.176 58.9545 300.267 56.5909C301.358 54.2121 301.903 51.2424 301.903 47.6818C301.903 44.1212 301.358 41.1667 300.267 38.8182C299.176 36.4545 297.563 34.6894 295.426 33.5227C293.305 32.3409 290.669 31.75 287.517 31.75H280.335V63.7045ZM359.869 47.7273C359.869 52.7424 358.93 57.0379 357.051 60.6136C355.188 64.1742 352.642 66.9015 349.415 68.7955C346.203 70.6894 342.559 71.6364 338.483 71.6364C334.407 71.6364 330.756 70.6894 327.528 68.7955C324.316 66.8864 321.771 64.1515 319.892 60.5909C318.028 57.0152 317.097 52.7273 317.097 47.7273C317.097 42.7121 318.028 38.4242 319.892 34.8636C321.771 31.2879 324.316 28.553 327.528 26.6591C330.756 24.7651 334.407 23.8182 338.483 23.8182C342.559 23.8182 346.203 24.7651 349.415 26.6591C352.642 28.553 355.188 31.2879 357.051 34.8636C358.93 38.4242 359.869 42.7121 359.869 47.7273ZM351.392 47.7273C351.392 44.197 350.839 41.2197 349.733 38.7955C348.642 36.3561 347.127 34.5152 345.188 33.2727C343.248 32.0152 341.013 31.3864 338.483 31.3864C335.953 31.3864 333.718 32.0152 331.778 33.2727C329.839 34.5152 328.316 36.3561 327.21 38.7955C326.119 41.2197 325.574 44.197 325.574 47.7273C325.574 51.2576 326.119 54.2424 327.21 56.6818C328.316 59.1061 329.839 60.947 331.778 62.2045C333.718 63.447 335.953 64.0682 338.483 64.0682C341.013 64.0682 343.248 63.447 345.188 62.2045C347.127 60.947 348.642 59.1061 349.733 56.6818C350.839 54.2424 351.392 51.2576 351.392 47.7273Z" fill="white"/>
<path d="M4 12C4 5.3726 9.37258 0 16 0H107C113.627 0 119 5.37258 119 12V82.0909C119 88.7183 113.627 94.0909 107 94.0909H16C9.37258 94.0909 4 88.7183 4 82.0909V12Z" fill="#454545"/>
<rect x="13.9546" y="50.5" width="95.0909" height="32.3636" rx="8.5" fill="#F3F3F3" stroke="#DADADA"/>
<circle cx="30.1365" cy="66.6817" r="5.72727" fill="#EEEEEE" stroke="#817D7D"/>
<path d="M42 65H51.5H61" stroke="#252525" stroke-width="3" stroke-linecap="round"/>
<path d="M103.182 52L103 81.4352C106.613 80.4324 108 76.5 108 76.5V66.5392V57.0135C107.398 55.0081 105.591 53.0027 103.182 52Z" fill="#FF2855" stroke="#FF2855"/>
<path d="M41.1133 69.2954H55.4883H69.8633" stroke="#252525" stroke-linecap="round"/>
<path d="M41.1133 71.9091H59.4087H77.7042" stroke="#252525" stroke-linecap="round"/>
<path d="M41.1133 74.5227H63.3292H85.5451" stroke="#252525" stroke-linecap="round"/>
<rect x="14.5" y="10.5" width="95.0909" height="32.3636" rx="8.5" fill="#252525" stroke="#393939"/>
<circle cx="30.6819" cy="26.682" r="5.72727" fill="#464646" stroke="#4F4F4F"/>
<path d="M27.5 27.5001L30 30.0001L34 24.5001" stroke="#C6C6C6" stroke-linecap="round"/>
<path d="M42 25H51.5H61" stroke="#F3F3F3" stroke-width="3" stroke-linecap="round"/>
<path d="M103.5 12L103 41.5C106.111 41.3717 108.5 36.5 108.5 36V27V17C107.898 14.9946 106 12.5 103.5 12Z" fill="#6D9FFF" stroke="#6D9FFF"/>
<path d="M41.6592 29.2955H56.0342H70.4092" stroke="#F3F3F3" stroke-linecap="round"/>
<path d="M41.6592 31.9091H59.9546H78.2501" stroke="#F3F3F3" stroke-linecap="round"/>
<path d="M41.6592 34.5227H63.8751H86.091" stroke="#F3F3F3" stroke-linecap="round"/>
</g>
<defs>
<filter id="filter0_d_22_269" x="0" y="0" width="363.869" height="102.091" filterUnits="userSpaceOnUse" color-interpolation-filters="sRGB">
<feFlood flood-opacity="0" result="BackgroundImageFix"/>
<feColorMatrix in="SourceAlpha" type="matrix" values="0 0 0 0 0 0 0 0 0 0 0 0 0 0 0 0 0 0 127 0" result="hardAlpha"/>
<feOffset dy="4"/>
<feGaussianBlur stdDeviation="2"/>
<feComposite in2="hardAlpha" operator="out"/>
<feColorMatrix type="matrix" values="0 0 0 0 0 0 0 0 0 0 0 0 0 0 0 0 0 0 0.25 0"/>
<feBlend mode="normal" in2="BackgroundImageFix" result="effect1_dropShadow_22_269"/>
<feBlend mode="normal" in="SourceGraphic" in2="effect1_dropShadow_22_269" result="shape"/>
</filter>
</defs>
</svg>
