<svg width="54" height="59" viewBox="0 0 54 59" fill="none" xmlns="http://www.w3.org/2000/svg">
<path d="M15.0957 2V9.85714" stroke="#F4C70A" stroke-width="3" stroke-miterlimit="10" stroke-linecap="round" stroke-linejoin="round"/>
<path d="M36.0474 2V9.85714" stroke="#F4C70A" stroke-width="3" stroke-miterlimit="10" stroke-linecap="round" stroke-linejoin="round"/>
<path d="M3.30957 20.5686H47.8334" stroke="#F4C70A" stroke-width="3" stroke-miterlimit="10" stroke-linecap="round" stroke-linejoin="round"/>
<path d="M41.2858 57C47.0715 57 51.7619 52.3095 51.7619 46.5238C51.7619 40.7381 47.0715 36.0476 41.2858 36.0476C35.5 36.0476 30.8096 40.7381 30.8096 46.5238C30.8096 52.3095 35.5 57 41.2858 57Z" stroke="#F4C70A" stroke-width="3" stroke-miterlimit="10" stroke-linecap="round" stroke-linejoin="round"/>
<path d="M44.0861 49.4307L38.5337 43.9045" stroke="#F4C70A" stroke-width="3" stroke-miterlimit="10" stroke-linecap="round" stroke-linejoin="round"/>
<path d="M44.0348 43.9573L38.4824 49.5097" stroke="#F4C70A" stroke-width="3" stroke-miterlimit="10" stroke-linecap="round" stroke-linejoin="round"/>
<path d="M2 30.8359V19.0239C2 11.1668 5.92857 5.92871 15.0952 5.92871H36.0476C45.2143 5.92871 49.1429 11.1668 49.1429 19.0239V39.6097C47.231 37.4359 44.4286 36.0478 41.2857 36.0478C35.4976 36.0478 30.8095 40.7359 30.8095 46.5239C30.8095 48.4882 31.3595 50.3478 32.3286 51.9192C32.8786 52.862 33.5857 53.7001 34.3976 54.3811H15.0952C5.92857 54.3811 2 49.143 2 41.2859" stroke="#F4C70A" stroke-width="3" stroke-miterlimit="10" stroke-linecap="round" stroke-linejoin="round"/>
</svg>
