<svg width="15" height="14" viewBox="0 0 15 14" fill="none" xmlns="http://www.w3.org/2000/svg">
<path d="M7.01797 9.09917C5.66659 9.09917 4.56982 8.0024 4.56982 6.65103C4.56982 5.29965 5.66659 4.20288 7.01797 4.20288C8.36935 4.20288 9.46612 5.29965 9.46612 6.65103C9.46612 8.0024 8.36935 9.09917 7.01797 9.09917ZM7.01797 5.18214C6.20845 5.18214 5.54908 5.84151 5.54908 6.65103C5.54908 7.46055 6.20845 8.11991 7.01797 8.11991C7.82749 8.11991 8.48686 7.46055 8.48686 6.65103C8.48686 5.84151 7.82749 5.18214 7.01797 5.18214Z" fill="#292D32"/>
<path d="M9.11363 13.3034C8.97653 13.3034 8.83944 13.2838 8.70234 13.2512C8.29758 13.1402 7.95811 12.8856 7.74267 12.5265L7.66433 12.396C7.27915 11.7301 6.75035 11.7301 6.36518 12.396L6.29337 12.52C6.07793 12.8856 5.73845 13.1467 5.33369 13.2512C4.92241 13.3622 4.49806 13.3034 4.139 13.088L3.01612 12.4417C2.61788 12.2132 2.33063 11.8411 2.2066 11.3906C2.08908 10.9401 2.14784 10.4766 2.37633 10.0784C2.56566 9.74544 2.61788 9.44513 2.5069 9.25581C2.39592 9.06649 2.1152 8.9555 1.73002 8.9555C0.776878 8.9555 0 8.17863 0 7.22548V6.07648C0 5.12334 0.776878 4.34646 1.73002 4.34646C2.1152 4.34646 2.39592 4.23548 2.5069 4.04616C2.61788 3.85683 2.57219 3.55653 2.37633 3.22358C2.14784 2.82535 2.08908 2.3553 2.2066 1.91137C2.32411 1.46091 2.61136 1.0888 3.01612 0.860302L4.14553 0.213992C4.88323 -0.22341 5.85596 0.0311968 6.29989 0.781961L6.37824 0.912529C6.76341 1.57842 7.29221 1.57842 7.67739 0.912529L7.7492 0.78849C8.19313 0.0311968 9.16586 -0.22341 9.91009 0.22052L11.033 0.866831C11.4312 1.09532 11.7185 1.46744 11.8425 1.9179C11.96 2.36836 11.9013 2.83188 11.6728 3.23011C11.4834 3.56306 11.4312 3.86336 11.5422 4.05268C11.6532 4.24201 11.9339 4.35299 12.3191 4.35299C13.2722 4.35299 14.0491 5.12987 14.0491 6.08301V7.23201C14.0491 8.18515 13.2722 8.96203 12.3191 8.96203C11.9339 8.96203 11.6532 9.07302 11.5422 9.26234C11.4312 9.45166 11.4769 9.75197 11.6728 10.0849C11.9013 10.4831 11.9665 10.9532 11.8425 11.3971C11.725 11.8476 11.4377 12.2197 11.033 12.4482L9.90357 13.0945C9.65549 13.2316 9.38782 13.3034 9.11363 13.3034ZM7.01802 10.8879C7.59904 10.8879 8.1409 11.2535 8.51302 11.8998L8.58483 12.0238C8.66317 12.1609 8.79374 12.2589 8.95042 12.298C9.1071 12.3372 9.26378 12.3176 9.39435 12.2393L10.5238 11.5864C10.6935 11.4885 10.8241 11.3253 10.8763 11.1295C10.9285 10.9336 10.9024 10.7312 10.8045 10.5615C10.4324 9.92171 10.3867 9.26234 10.6739 8.75965C10.9612 8.25697 11.5552 7.96972 12.2995 7.96972C12.7173 7.96972 13.0502 7.63677 13.0502 7.21895V6.06996C13.0502 5.65867 12.7173 5.31919 12.2995 5.31919C11.5552 5.31919 10.9612 5.03194 10.6739 4.52926C10.3867 4.02657 10.4324 3.3672 10.8045 2.72742C10.9024 2.55768 10.9285 2.3553 10.8763 2.15945C10.8241 1.9636 10.7 1.80692 10.5303 1.70246L9.40088 1.05615C9.12016 0.886416 8.74804 0.984342 8.5783 1.27159L8.50649 1.39563C8.13437 2.04194 7.59252 2.40753 7.01149 2.40753C6.43046 2.40753 5.88861 2.04194 5.51649 1.39563L5.44468 1.26506C5.28147 0.99087 4.91588 0.892944 4.63516 1.05615L3.50574 1.70899C3.33601 1.80692 3.20544 1.97013 3.15321 2.16598C3.10098 2.36183 3.1271 2.56421 3.22502 2.73395C3.59714 3.37373 3.64284 4.0331 3.35559 4.53579C3.06834 5.03847 2.47426 5.32572 1.73002 5.32572C1.31221 5.32572 0.979258 5.65867 0.979258 6.07648V7.22548C0.979258 7.63677 1.31221 7.97625 1.73002 7.97625C2.47426 7.97625 3.06834 8.2635 3.35559 8.76618C3.64284 9.26887 3.59714 9.92823 3.22502 10.568C3.1271 10.7378 3.10098 10.9401 3.15321 11.136C3.20544 11.3318 3.32948 11.4885 3.49922 11.593L4.62863 12.2393C4.76572 12.3242 4.92893 12.3437 5.07909 12.3046C5.23577 12.2654 5.36634 12.1609 5.4512 12.0238L5.52302 11.8998C5.89514 11.26 6.43699 10.8879 7.01802 10.8879Z" fill="#292D32"/>
</svg>
