<svg width="25" height="25" viewBox="0 0 25 25" fill="none" xmlns="http://www.w3.org/2000/svg">
<path d="M17.5598 5.31915C18.0479 5.31915 18.4526 4.91726 18.4526 4.43262V0.886525C18.4526 0.401891 18.0479 0 17.5598 0C17.0717 0 16.6669 0.401891 16.6669 0.886525V4.43262C16.6669 4.91726 17.0717 5.31915 17.5598 5.31915Z" fill="#FF2855"/>
<path d="M7.44064 5.31915C7.92873 5.31915 8.3335 4.91726 8.3335 4.43262V0.886525C8.3335 0.401891 7.92873 0 7.44064 0C6.95254 0 6.54778 0.401891 6.54778 0.886525V4.43262C6.54778 4.91726 6.95254 5.31915 7.44064 5.31915Z" fill="#FF2855"/>
<path d="M1.56051 10.1067H23.4395C23.9672 10.1067 24.4048 9.62439 24.4048 9.04283C24.4048 8.46127 23.9672 7.979 23.4395 7.979H1.56051C1.03284 7.979 0.59526 8.46127 0.59526 9.04283C0.59526 9.62439 1.03284 10.1067 1.56051 10.1067Z" fill="#FF2855"/>
<path d="M7.37179 25.0002H17.6282C22.3077 25.0002 25 22.5428 25 18.2715V8.32467C25 4.05339 22.3077 1.59595 17.6282 1.59595H7.37179C2.69231 1.59595 -8.34465e-07 4.05339 -8.34465e-07 8.32467V18.2715C-8.34465e-07 22.5428 2.69231 25.0002 7.37179 25.0002ZM17.6282 3.35127C21.2949 3.35127 23.0769 4.97786 23.0769 8.32467V18.2715C23.0769 21.6183 21.2949 23.2449 17.6282 23.2449H7.37179C3.70513 23.2449 1.92308 21.6183 1.92308 18.2715V8.32467C1.92308 4.97786 3.70513 3.35127 7.37179 3.35127H17.6282Z" fill="#FF2855"/>
<path d="M16.9645 15.4252C17.158 15.4252 17.3514 15.3853 17.53 15.3188C17.7086 15.2523 17.8723 15.1592 18.0211 15.0396C18.155 14.9066 18.2592 14.7603 18.3336 14.6007C18.408 14.4412 18.4526 14.2683 18.4526 14.0954C18.4526 13.7497 18.2889 13.4039 18.0211 13.1513C17.8723 13.0316 17.7086 12.9385 17.53 12.872C17.2622 12.7656 16.9645 12.739 16.6669 12.7922C16.5776 12.8055 16.4884 12.8321 16.3991 12.872C16.3098 12.8986 16.2205 12.9385 16.1312 12.9917C16.0568 13.0449 15.9824 13.0981 15.908 13.1513C15.8485 13.2178 15.7741 13.2842 15.7294 13.3507C15.6699 13.4305 15.6252 13.5103 15.5955 13.5901C15.5508 13.6699 15.5211 13.7497 15.5062 13.8295C15.4913 13.9225 15.4764 14.0023 15.4764 14.0954C15.4764 14.4412 15.6402 14.7869 15.908 15.0396C16.1907 15.2789 16.5776 15.4252 16.9645 15.4252Z" fill="#FF2855"/>
<path d="M12.5 15.4252C12.8095 15.4252 13.119 15.2788 13.3452 15.0393C13.3928 14.9728 13.4404 14.9063 13.488 14.8398C13.5357 14.7599 13.5714 14.6801 13.5952 14.6003C13.6309 14.5204 13.6547 14.4406 13.6666 14.3608C13.6785 14.2676 13.6904 14.1878 13.6904 14.0947C13.6904 13.9217 13.6547 13.7487 13.5952 13.5891C13.5357 13.4294 13.4523 13.2831 13.3452 13.15C13.0119 12.7775 12.4761 12.6577 12.0476 12.8706C11.8928 12.9371 11.7738 13.0303 11.6547 13.15C11.4404 13.4028 11.3095 13.7487 11.3095 14.0947C11.3095 14.1878 11.3214 14.2676 11.3333 14.3608C11.3452 14.4406 11.369 14.5204 11.4047 14.6003C11.4285 14.6801 11.4642 14.7599 11.5119 14.8398C11.5595 14.9063 11.6071 14.9728 11.6547 15.0393C11.7738 15.1591 11.8928 15.2522 12.0476 15.3188C12.1904 15.3853 12.3452 15.4252 12.5 15.4252Z" fill="#FF2855"/>
<path d="M16.9645 19.1489C17.158 19.1489 17.3514 19.117 17.53 19.0637C17.7086 19.0105 17.8723 18.936 18.0211 18.8402C18.155 18.7338 18.2592 18.6273 18.3336 18.489C18.408 18.3612 18.4526 18.2229 18.4526 18.0845C18.4526 17.8077 18.2889 17.531 18.0211 17.3287C17.8723 17.2329 17.7086 17.1584 17.53 17.1052C16.9794 16.9349 16.3247 17.0307 15.908 17.3287C15.8485 17.382 15.7741 17.4352 15.7294 17.4884C15.6699 17.5523 15.6252 17.6161 15.5955 17.68C15.5508 17.7439 15.5211 17.8077 15.5062 17.8822C15.4913 17.9461 15.4764 18.0206 15.4764 18.0845C15.4764 18.3612 15.6402 18.638 15.908 18.8402C16.1907 19.0318 16.5776 19.1489 16.9645 19.1489Z" fill="#FF2855"/>
</svg>
