<svg width="54" height="59" viewBox="0 0 54 59" fill="none" xmlns="http://www.w3.org/2000/svg">
<path d="M15.8887 2V10.2459V2Z" fill="white"/>
<path d="M15.8887 2V10.2459" stroke="#008CFF" stroke-width="3" stroke-miterlimit="10" stroke-linecap="round" stroke-linejoin="round"/>
<path d="M38.1113 2V10.2459V2Z" fill="white"/>
<path d="M38.1113 2V10.2459" stroke="#008CFF" stroke-width="3" stroke-miterlimit="10" stroke-linecap="round" stroke-linejoin="round"/>
<path d="M2 23.0269C2 10.1084 6.63889 6.6451 15.8889 6.12286H38.1111C47.3611 6.61762 52 10.1084 52 23.0269V40.0134C52 51.3378 49.2222 56.9999 35.3333 56.9999H18.6667C4.77778 56.9999 2 51.3378 2 40.0134V34.9834" stroke="#008CFF" stroke-width="3" stroke-miterlimit="10" stroke-linecap="round" stroke-linejoin="round"/>
<path d="M51.3054 44.8788H2.69434H51.3054Z" fill="white"/>
<path d="M51.3054 44.8788H2.69434" stroke="#008CFF" stroke-width="3" stroke-miterlimit="10" stroke-linecap="round" stroke-linejoin="round"/>
<path d="M27.6027 19.7797C24.1037 19.7797 21.1451 21.6857 21.1451 25.3839C21.1451 27.1476 21.9701 28.4846 23.2218 29.3381C21.4865 30.3622 20.4908 32.0121 20.4908 33.9465C20.4908 37.474 23.1934 39.6645 27.6027 39.6645C31.9836 39.6645 34.7146 37.474 34.7146 33.9465C34.7146 32.0121 33.7189 30.3337 31.9552 29.3381C33.2353 28.4562 34.0318 27.1476 34.0318 25.3839C34.0318 21.6857 31.1017 19.7797 27.6027 19.7797ZM27.6027 27.8588C26.1234 27.8588 25.0424 26.9769 25.0424 25.583C25.0424 24.1606 26.1234 23.3357 27.6027 23.3357C29.082 23.3357 30.163 24.1606 30.163 25.583C30.163 26.9769 29.082 27.8588 27.6027 27.8588ZM27.6027 36.137C25.7252 36.137 24.3597 35.1982 24.3597 33.4914C24.3597 31.7845 25.7252 30.8742 27.6027 30.8742C29.4802 30.8742 30.8457 31.813 30.8457 33.4914C30.8457 35.1982 29.4802 36.137 27.6027 36.137Z" fill="#008CFF"/>
</svg>
