<svg width="54" height="59" viewBox="0 0 54 59" fill="none" xmlns="http://www.w3.org/2000/svg">
<path d="M15.8887 2V10.2459V2Z" fill="white"/>
<path d="M15.8887 2V10.2459" stroke="#008CFF" stroke-width="3" stroke-miterlimit="10" stroke-linecap="round" stroke-linejoin="round"/>
<path d="M38.1113 2V10.2459V2Z" fill="white"/>
<path d="M38.1113 2V10.2459" stroke="#008CFF" stroke-width="3" stroke-miterlimit="10" stroke-linecap="round" stroke-linejoin="round"/>
<path d="M2 23.0268C2 10.1083 6.63889 6.64504 15.8889 6.1228H38.1111C47.3611 6.61756 52 10.1083 52 23.0268V40.0134C52 51.3377 49.2222 56.9999 35.3333 56.9999H18.6667C4.77778 56.9999 2 51.3377 2 40.0134V34.9834" fill="#2F2F2F"/>
<path d="M2 23.0269C2 10.1083 6.63889 6.64504 15.8889 6.1228H38.1111C47.3611 6.61756 52 10.1083 52 23.0269V40.0134C52 51.3377 49.2222 56.9999 35.3333 56.9999H18.6667C4.77778 56.9999 2 51.3377 2 40.0134V34.9834" stroke="#008CFF" stroke-width="3" stroke-miterlimit="10" stroke-linecap="round" stroke-linejoin="round"/>
<path d="M51.3054 44.8789H2.69434H51.3054Z" fill="white"/>
<path d="M51.3054 44.8789H2.69434" stroke="#008CFF" stroke-width="3" stroke-miterlimit="10" stroke-linecap="round" stroke-linejoin="round"/>
<path d="M27.6026 19.7798C24.1035 19.7798 21.145 21.6858 21.145 25.3839C21.145 27.1477 21.97 28.4847 23.2217 29.3381C21.4864 30.3622 20.4907 32.0122 20.4907 33.9466C20.4907 37.4741 23.1932 39.6645 27.6026 39.6645C31.9835 39.6645 34.7144 37.4741 34.7144 33.9466C34.7144 32.0122 33.7188 30.3338 31.955 29.3381C33.2352 28.4563 34.0317 27.1477 34.0317 25.3839C34.0317 21.6858 31.1016 19.7798 27.6026 19.7798ZM27.6026 27.8589C26.1233 27.8589 25.0423 26.977 25.0423 25.5831C25.0423 24.1607 26.1233 23.3357 27.6026 23.3357C29.0819 23.3357 30.1629 24.1607 30.1629 25.5831C30.1629 26.977 29.0819 27.8589 27.6026 27.8589ZM27.6026 36.1371C25.7251 36.1371 24.3596 35.1983 24.3596 33.4915C24.3596 31.7846 25.7251 30.8743 27.6026 30.8743C29.4801 30.8743 30.8456 31.8131 30.8456 33.4915C30.8456 35.1983 29.4801 36.1371 27.6026 36.1371Z" fill="#008CFF"/>
</svg>
