<svg width="17" height="19" viewBox="0 0 17 19" fill="none" xmlns="http://www.w3.org/2000/svg">
<path d="M15.8063 4.61877C15.7894 4.61877 15.7642 4.61877 15.7389 4.61877C11.2802 4.17206 6.83005 4.0035 2.42197 4.4502L0.702573 4.61877C0.34858 4.65248 0.036729 4.39963 0.00301541 4.04564C-0.0306982 3.69164 0.222154 3.38822 0.567719 3.35451L2.28711 3.18594C6.77105 2.73081 11.314 2.9078 15.8653 3.35451C16.2109 3.38822 16.4637 3.70007 16.43 4.04564C16.4047 4.37435 16.1266 4.61877 15.8063 4.61877Z" fill="#292D32"/>
<path d="M5.27143 3.7675C5.23771 3.7675 5.204 3.7675 5.16186 3.75907C4.82472 3.70007 4.58873 3.37136 4.64773 3.03423L4.83315 1.9301C4.96801 1.12098 5.15343 0 7.11721 0H9.32546C11.2977 0 11.4831 1.16312 11.6096 1.93853L11.795 3.03423C11.854 3.37979 11.618 3.7085 11.2808 3.75907C10.9353 3.81807 10.6066 3.58207 10.556 3.24494L10.3706 2.14924C10.2526 1.41597 10.2273 1.27269 9.33389 1.27269H7.12564C6.23227 1.27269 6.21541 1.39069 6.08898 2.14081L5.89513 3.23651C5.84456 3.54836 5.57485 3.7675 5.27143 3.7675Z" fill="#292D32"/>
<path d="M10.9267 18.1211H5.51568C2.57416 18.1211 2.45617 16.4944 2.36345 15.1796L1.81561 6.69213C1.79032 6.34656 2.06003 6.04315 2.4056 6.01786C2.75959 6.001 3.05458 6.26229 3.07987 6.60785L3.62771 15.0953C3.72043 16.3764 3.75414 16.8568 5.51568 16.8568H10.9267C12.6967 16.8568 12.7304 16.3764 12.8147 15.0953L13.3625 6.60785C13.3878 6.26229 13.6912 6.001 14.0368 6.01786C14.3824 6.04315 14.6521 6.33813 14.6268 6.69213L14.0789 15.1796C13.9862 16.4944 13.8682 18.1211 10.9267 18.1211Z" fill="#292D32"/>
<path d="M9.61996 13.4855H6.8133C6.46772 13.4855 6.18115 13.1989 6.18115 12.8533C6.18115 12.5078 6.46772 12.2212 6.8133 12.2212H9.61996C9.96552 12.2212 10.2521 12.5078 10.2521 12.8533C10.2521 13.1989 9.96552 13.4855 9.61996 13.4855Z" fill="#292D32"/>
<path d="M10.3283 10.1141H6.11406C5.7685 10.1141 5.48193 9.82755 5.48193 9.48198C5.48193 9.13642 5.7685 8.84985 6.11406 8.84985H10.3283C10.6738 8.84985 10.9604 9.13642 10.9604 9.48198C10.9604 9.82755 10.6738 10.1141 10.3283 10.1141Z" fill="#292D32"/>
</svg>
