<svg width="1921" height="219" viewBox="0 0 1921 219" fill="none" xmlns="http://www.w3.org/2000/svg">
<path d="M1068.73 147.083C671.505 -34.9286 202.099 -26.953 0 57.6517V103.294C0 103.294 1465.96 329.094 1068.73 147.083Z" fill="url(#paint0_linear_39_20)" fill-opacity="0.5"/>
<path d="M1919.5 217V19.5C1388.7 -38.1 736.5 127.167 620 217H1919.5Z" fill="url(#paint1_linear_39_20)" fill-opacity="0.5"/>
<g filter="url(#filter0_i_39_20)">
<path d="M1921 218.5V85.5C1921 85.5 1743.5 126.5 1558 147C1372.5 167.5 575 82 575 82C136.5 50 0.5 101 0.5 101V218.5H1921Z" fill="url(#paint2_linear_39_20)"/>
<path d="M1921 218.5V85.5C1921 85.5 1743.5 126.5 1558 147C1372.5 167.5 575 82 575 82C136.5 50 0.5 101 0.5 101V218.5H1921Z" stroke="black"/>
</g>
<defs>
<filter id="filter0_i_39_20" x="0.5" y="71.4498" width="1920.5" height="151.05" filterUnits="userSpaceOnUse" color-interpolation-filters="sRGB">
<feFlood flood-opacity="0" result="BackgroundImageFix"/>
<feBlend mode="normal" in="SourceGraphic" in2="BackgroundImageFix" result="shape"/>
<feColorMatrix in="SourceAlpha" type="matrix" values="0 0 0 0 0 0 0 0 0 0 0 0 0 0 0 0 0 0 127 0" result="hardAlpha"/>
<feOffset dy="4"/>
<feGaussianBlur stdDeviation="8.5"/>
<feComposite in2="hardAlpha" operator="arithmetic" k2="-1" k3="1"/>
<feColorMatrix type="matrix" values="0 0 0 0 0 0 0 0 0 0 0 0 0 0 0 0 0 0 0.5 0"/>
<feBlend mode="normal" in2="shape" result="effect1_innerShadow_39_20"/>
</filter>
<linearGradient id="paint0_linear_39_20" x1="1274.5" y1="-8.8989" x2="-831.288" y2="297.442" gradientUnits="userSpaceOnUse">
<stop stop-color="#3E3E3E"/>
<stop offset="1" stop-color="#323232" stop-opacity="0"/>
</linearGradient>
<linearGradient id="paint1_linear_39_20" x1="1048" y1="-55.0002" x2="2408.5" y2="356.5" gradientUnits="userSpaceOnUse">
<stop stop-color="#3E3E3E"/>
<stop offset="1" stop-color="#3E3E3E" stop-opacity="0"/>
</linearGradient>
<linearGradient id="paint2_linear_39_20" x1="2209.5" y1="62.5002" x2="-266.5" y2="326" gradientUnits="userSpaceOnUse">
<stop stop-color="#008CFF"/>
<stop offset="1" stop-color="#B22635"/>
</linearGradient>
</defs>
</svg>
