<svg width="1920" height="219" viewBox="0 0 1920 219" fill="none" xmlns="http://www.w3.org/2000/svg">
<path d="M1068.18 147.083C671.155 -34.9286 201.993 -26.953 0 57.6517V103.294C0 103.294 1465.2 329.094 1068.18 147.083Z" fill="url(#paint0_linear_39_20)" fill-opacity="0.5"/>
<path d="M1918.5 217V19.5C1387.98 -38.1 736.117 127.167 619.677 217H1918.5Z" fill="url(#paint1_linear_39_20)" fill-opacity="0.5"/>
<g filter="url(#filter0_i_39_20)">
<path d="M1920 218.5V85.5C1920 85.5 1742.59 126.5 1557.19 147C1371.79 167.5 574.701 82 574.701 82C136.429 50 0.499756 101 0.499756 101V218.5H1920Z" fill="url(#paint2_linear_39_20)"/>
</g>
<defs>
<filter id="filter0_i_39_20" x="0.499756" y="71.4498" width="1919.5" height="151.05" filterUnits="userSpaceOnUse" color-interpolation-filters="sRGB">
<feFlood flood-opacity="0" result="BackgroundImageFix"/>
<feBlend mode="normal" in="SourceGraphic" in2="BackgroundImageFix" result="shape"/>
<feColorMatrix in="SourceAlpha" type="matrix" values="0 0 0 0 0 0 0 0 0 0 0 0 0 0 0 0 0 0 127 0" result="hardAlpha"/>
<feOffset dy="4"/>
<feGaussianBlur stdDeviation="8.5"/>
<feComposite in2="hardAlpha" operator="arithmetic" k2="-1" k3="1"/>
<feColorMatrix type="matrix" values="0 0 0 0 0 0 0 0 0 0 0 0 0 0 0 0 0 0 0.5 0"/>
<feBlend mode="normal" in2="shape" result="effect1_innerShadow_39_20"/>
</filter>
<linearGradient id="paint0_linear_39_20" x1="1273.84" y1="-8.8989" x2="-830.901" y2="297.129" gradientUnits="userSpaceOnUse">
<stop stop-color="#3E3E3E"/>
<stop offset="1" stop-color="#323232" stop-opacity="0"/>
</linearGradient>
<linearGradient id="paint1_linear_39_20" x1="1047.45" y1="-55.0002" x2="2407.37" y2="356.107" gradientUnits="userSpaceOnUse">
<stop stop-color="#3E3E3E"/>
<stop offset="1" stop-color="#3E3E3E" stop-opacity="0"/>
</linearGradient>
<linearGradient id="paint2_linear_39_20" x1="2208.35" y1="62.5002" x2="-266.39" y2="325.729" gradientUnits="userSpaceOnUse">
<stop stop-color="#008CFF"/>
<stop offset="1" stop-color="#B22635"/>
</linearGradient>
</defs>
</svg>
